<mxfile host="app.diagrams.net" modified="2024-05-08T14:40:58.164Z" agent="Mozilla/5.0 (Windows NT 10.0; Win64; x64; rv:126.0) Gecko/20100101 Firefox/126.0" version="24.3.1" etag="SOCWd3tYk0GvDNy9737S" type="github">
  <diagram name="Page-1" id="LCFDY9uWvVuW8VNgmCVD">
    <mxGraphModel>
      <root>
        <mxCell id="0" />
        <mxCell id="1" parent="0" />
      </root>
    </mxGraphModel>
  </diagram>
</mxfile>
